<svg xmlns="http://www.w3.org/2000/svg" xmlns:xlink="http://www.w3.org/1999/xlink" xmlns:sketch="http://www.bohemiancoding.com/sketch/ns" width="37px" height="35px" viewBox="0 0 37 35" version="1.1">
    <title>banana</title>
    <description>Created with Sketch (http://www.bohemiancoding.com/sketch)</description>
    <defs/>
    <g id="Fruits" stroke="none" stroke-width="1" fill="none" fill-rule="evenodd" sketch:type="MSPage">
        <path d="M2.11223958,27.4432284 C2.11223958,27.4432284 13.4932623,27.9075523 19.4255215,24.3330733 C22.7153641,22.3507811 28.1358735,17.8271665 31.0375,12.3463538 C33.6015644,7.50315472 32.7200523,1.38281248 33.1648403,0.733908961 C33.6096282,0.085005444 36.5776055,0.494549401 36.5776039,2.51588546 C36.5776024,4.53722153 35.0480476,5.21341126 34.7239586,5.93385403 C34.3998695,6.65429679 33.9827209,8.50645143 34.2687507,9.07630198 C35.1455742,10.8231768 37.0109348,14.5231788 35.8914047,19.8677088 C35.3026498,22.67837 32.7084051,27.1417583 28.8059898,30.2388026 C25.287882,33.0308518 20.6735082,34.6114873 16.0856768,34.63646 C6.40885316,34.6891341 2.11223958,30.7682292 2.11223958,30.7682292 C-0.188541681,29.2174479 0.98359375,27.0729167 2.11223958,27.4432284 Z" id="banana" fill="#000000" sketch:type="MSShapeGroup"/>
    </g>
</svg>